<svg width="186" height="15" viewBox="0 0 186 15" fill="none" xmlns="http://www.w3.org/2000/svg">
<path fill-rule="evenodd" clip-rule="evenodd" d="M36.5914 14.5123C35.1785 12.3498 33.7618 10.1889 32.3635 8.02412C30.9681 5.86352 28.9979 2.89692 27.5964 0.732422C27.2157 1.32962 26.8457 1.93352 26.403 2.65032C26.9889 3.55652 28.1334 5.26522 28.7226 6.16732C29.315 7.07392 29.9151 7.97872 30.5112 8.88302C27.8934 8.88112 25.2756 8.87942 22.6578 8.87752C22.607 8.87752 22.4949 8.87082 22.4949 8.87082C22.3595 9.09432 21.6377 10.2365 20.8835 11.4541C20.1268 12.6757 19.3072 13.9728 19.0029 14.5148C19.531 14.5188 20.5555 14.5109 21.0224 14.5109C21.3838 13.9203 21.7487 13.3281 22.1166 12.7355C22.4817 12.1475 22.8392 11.5523 23.2207 10.9593C26.1128 10.9606 29.0048 10.9619 31.907 10.9632C32.287 11.5583 32.6771 12.1523 33.057 12.7446C33.4368 13.3369 33.8372 13.9305 34.2274 14.5228C35.4748 14.5097 35.9927 14.5137 36.5914 14.5123V14.5123Z" fill="white"/>
<path fill-rule="evenodd" clip-rule="evenodd" d="M107.037 11.8415C107.038 11.4497 107.039 11.0567 107.051 10.665C107.039 10.5058 107.009 10.132 106.933 9.86494C106.849 9.48984 106.675 9.06344 106.315 8.47494C106.191 8.26174 105.688 7.78104 105.583 7.67434C105.71 7.51394 106.038 7.03384 106.121 6.71284C106.661 5.11204 106.479 3.64324 105.747 2.57534C105.015 1.50844 103.721 0.836538 102.05 0.833838C99.2584 0.829538 96.4771 0.825137 93.6851 0.820737C92.9952 0.819637 92.3161 0.818439 91.6261 0.817339C91.5184 0.817239 91.3567 0.817041 91.2596 0.816841C90.8499 0.816141 90.4403 0.815541 90.0307 0.814941C90.024 1.41254 90.022 1.93244 90.0185 2.84054C91.776 2.84574 93.5335 2.85084 95.2909 2.85464C97.404 2.85754 99.5172 2.86044 101.738 2.86344C104.474 2.97364 104.476 3.66854 104.582 5.00174C104.651 5.85734 104.701 7.03274 102.07 7.03044C98.5657 7.02744 93.4905 7.06864 89.971 7.01154C89.9796 7.25834 89.9784 7.65224 89.9647 8.57014C89.9557 9.41054 89.9322 10.4771 89.9299 11.542C89.9278 12.6057 89.9041 13.6707 89.8948 14.5098C90.7152 14.5168 91.2438 14.5182 91.9229 14.5113C91.9256 13.7265 91.939 12.943 91.9416 12.1584C91.9944 11.4623 91.9891 10.7122 91.9794 9.90954C91.969 9.64184 91.9694 9.37434 91.9698 9.10684C95.8412 9.10924 99.5617 9.11154 103.218 9.11394C104.35 9.11454 104.966 9.80994 105.056 10.9312C105.039 11.5307 105.033 12.1289 105.026 12.7255C105.02 13.3222 105.014 13.9216 105.008 14.5183C105.277 14.5156 106.658 14.5128 106.97 14.5073C106.982 14.1183 106.994 13.7279 107.017 13.3377C107.021 12.856 107.026 12.3757 107.037 11.8415V11.8415Z" fill="white"/>
<path fill-rule="evenodd" clip-rule="evenodd" d="M72.811 2.80851C78.2452 2.82151 83.6793 2.83451 89.1133 2.84601C89.1168 2.20671 89.1344 1.47591 89.1362 0.815913C83.7032 0.810113 78.2592 0.80271 72.8261 0.79541C72.8291 1.52351 72.8187 2.21671 72.811 2.80851Z" fill="white"/>
<path fill-rule="evenodd" clip-rule="evenodd" d="M16.1762 0.707041C14.9961 1.92894 13.8261 3.15214 12.6569 4.37374C11.4866 5.59614 10.3169 6.81984 9.14681 8.04354C7.93391 6.81774 6.73191 5.59154 5.52991 4.36544C4.32841 3.13994 3.11561 1.91174 1.91401 0.684438C1.36451 0.687638 0.512608 0.682041 0.232308 0.681641C0.220208 2.98614 0.208108 5.29084 0.217408 7.59544C0.226708 9.90024 0.214609 12.2065 0.224009 14.513C0.677009 14.513 1.98221 14.5115 2.23051 14.5157C2.22771 12.7352 2.23541 10.9532 2.23261 9.17434C2.22991 7.39534 2.24841 5.61514 2.25621 3.83634C3.31831 4.92444 4.39131 6.01374 5.45351 7.10124C6.51571 8.18864 7.58911 9.27704 8.66231 10.3639C9.02551 10.7504 9.56471 10.7506 9.92831 10.4205C9.98751 10.3463 10.0466 10.2722 10.1166 10.198C10.1261 10.1798 10.1462 10.1617 10.1664 10.1435C11.1354 9.11274 12.1015 8.07934 13.0623 7.05184C14.0281 6.01894 15.0104 4.99184 15.9896 3.96364C15.9814 5.72154 15.9735 7.47944 15.9759 9.23734C15.9785 10.9953 15.9811 12.755 15.9837 14.5145C16.4149 14.5116 17.4831 14.5145 18.001 14.5158C18.0005 12.2142 18.0001 9.91254 17.9998 7.61254C17.9994 5.31244 17.9989 3.01394 17.9984 0.715537C17.0492 0.705537 16.554 0.713241 16.1762 0.707041V0.707041Z" fill="white"/>
<path fill-rule="evenodd" clip-rule="evenodd" d="M71.4562 0.785253C71.1868 0.784853 70.9065 0.784349 70.6262 0.783949C66.1699 0.723949 61.7285 0.71685 57.2803 0.76265C56.8276 0.76195 56.3856 0.761351 55.9436 0.760551C55.9338 1.47185 55.9227 2.16505 55.9138 2.74695C58.1132 2.74995 60.3125 2.75285 62.5118 2.75595C62.497 4.23025 62.4683 5.66725 62.4594 7.08195C62.4505 8.49675 62.4402 9.89335 62.4407 11.2901C62.4163 12.3669 62.4026 13.4438 62.3892 14.522C62.842 14.5178 63.9318 14.522 64.3414 14.5193C64.3685 13.4788 64.4064 12.4399 64.4444 11.3995C64.4401 11.3452 64.4359 11.291 64.4318 11.2381C64.4765 9.86815 64.5094 8.48695 64.5185 7.07815C64.5276 5.66935 64.5455 4.23275 64.5603 2.75865C66.8459 2.76175 69.1423 2.76495 71.4495 2.76815C71.4545 2.14285 71.4524 1.42585 71.4562 0.785253V0.785253Z" fill="white"/>
<path fill-rule="evenodd" clip-rule="evenodd" d="M37.057 11.7676C37.1319 13.3178 38.3717 14.4409 40.0586 14.4954C41.8101 14.5484 43.5859 14.4954 45.3226 14.4954C47.1024 14.4954 48.9551 14.5999 50.7333 14.4412C51.9354 14.3618 52.9263 13.7877 53.5732 12.9399C54.2195 12.0932 54.5541 10.9711 54.4096 9.79721C54.2672 8.65111 53.7775 7.75541 52.9977 7.14911C52.2177 6.54271 51.1469 6.2199 49.8422 6.2185C47.0494 6.2159 44.3215 6.2132 41.5394 6.2105C40.3857 6.2094 39.155 6.0479 39.045 4.6055C38.939 3.2176 39.9978 2.6834 41.27 2.6852C44.418 2.6895 47.6309 2.6939 50.725 2.6981C51.2425 2.6989 51.663 2.6995 52.0542 3.0202C52.1124 3.0746 52.1744 3.18061 52.2366 3.28781C52.2406 3.34081 52.2325 3.23501 52.2366 3.28781C52.262 3.61801 52.2874 3.94811 52.3126 4.27531C52.9383 4.27891 53.6718 4.28391 54.2971 4.28471C54.2853 4.13281 54.2733 3.9783 54.2722 3.8237C54.2709 3.8071 54.2696 3.7889 54.2681 3.7708C54.2416 2.1697 53.147 0.835504 51.4613 0.780004C47.7877 0.665504 44.1009 0.659504 40.487 0.762504C39.3269 0.815004 38.3702 1.31971 37.7424 2.08761C37.1182 2.85101 36.8013 3.88311 36.9063 4.97701C37.1109 6.95551 38.8478 8.2389 41.382 8.2407C44.1103 8.2427 46.7847 8.2447 49.5238 8.2467C50.8826 8.2477 52.1026 8.40881 52.2383 10.1693C52.3493 11.6123 51.5737 12.4659 49.902 12.4656C46.7997 12.5178 43.7 12.464 40.5829 12.4633C39.9034 12.463 39.3735 12.3025 39.0631 11.7681C39.0052 11.7151 38.997 11.6078 38.9928 11.5533C38.971 11.2687 38.9493 10.9828 38.9383 10.6982C38.378 10.7035 37.5583 10.7032 36.9647 10.6973L37.057 11.7676V11.7676Z" fill="white"/>
<path fill-rule="evenodd" clip-rule="evenodd" d="M89.0093 12.5845C88.0601 12.5843 87.1326 12.5841 86.2049 12.5839C83.0189 12.5303 79.8413 12.5823 76.6702 12.5816C76.0877 12.5814 75.4622 12.5813 74.7287 12.5812C74.7111 11.8045 74.7202 11.0919 74.7094 10.4028C74.6987 9.71383 74.7109 9.04283 74.7103 8.34543C75.4975 8.34593 76.123 8.34653 76.6945 8.34683C79.7787 8.34903 82.8563 8.40543 85.8675 8.30073C86.4713 8.30123 87.086 8.30163 87.7007 8.30203C87.7065 7.41993 87.7191 6.75973 87.7168 6.32143C82.7458 6.31663 77.7641 6.31193 72.7717 6.30713C72.762 6.73503 72.7651 7.32703 72.7423 7.86183C72.7635 8.96243 72.7425 10.074 72.7323 11.187C72.7222 12.2986 72.6903 13.4116 72.6794 14.5136C73.0568 14.5136 73.4344 14.5136 73.8228 14.5136C73.8766 14.5136 73.8766 14.5136 73.9306 14.5136C76.7568 14.5136 79.5074 14.5137 82.3335 14.5137C84.5449 14.5137 86.767 14.5137 88.9999 14.5139C89.0149 13.4749 89.0163 13.0824 89.0093 12.5845V12.5845Z" fill="white"/>
<path fill-rule="evenodd" clip-rule="evenodd" d="M133.964 14.5136C133.94 12.6165 133.916 10.7168 133.892 8.81564C133.868 6.91324 133.844 5.00644 133.819 3.09824C134.241 3.10234 135.237 3.10234 135.615 3.08984C135.638 5.00074 135.661 6.91154 135.685 8.81554C135.708 10.718 135.731 12.6207 135.754 14.5191C135.279 14.5205 134.314 14.5122 133.964 14.5136V14.5136Z" fill="white"/>
<path fill-rule="evenodd" clip-rule="evenodd" d="M152.13 14.5062C152.109 12.6104 152.103 10.7104 152.083 8.81185C152.062 6.90905 152.056 5.00215 152.042 3.09375C152.422 3.09935 153.417 3.09785 153.838 3.09645C153.851 5.00465 153.856 6.91185 153.875 8.81595C153.895 10.7173 153.9 12.6159 153.919 14.5132C153.416 14.5201 152.591 14.5118 152.13 14.5062V14.5062Z" fill="white"/>
<path fill-rule="evenodd" clip-rule="evenodd" d="M183.383 3.09607C183.373 4.51937 183.371 5.94407 183.368 7.36437C183.366 8.78347 183.363 10.2025 183.361 11.6188C181.537 10.2012 179.703 8.78217 177.883 7.36197C176.061 5.94027 174.23 4.51717 172.405 3.09277C171.802 3.09287 171.402 3.09707 171.101 3.09427C171.103 5.00427 171.098 6.91147 171.107 8.81567C171.116 10.7173 171.118 12.6176 171.127 14.5137C171.477 14.5192 172.672 14.5165 173.022 14.5192C173.012 13.092 173.009 11.6632 173 10.2332C172.99 8.80317 172.987 7.37047 172.984 5.93617C174.815 7.37037 176.653 8.80227 178.48 10.2318C180.306 11.6609 182.144 13.0904 183.974 14.515C184.296 14.5123 184.848 14.5165 185.253 14.5082C185.259 12.6133 185.266 10.7141 185.272 8.81377C185.278 6.91067 185.284 5.00197 185.298 3.09467C184.933 3.09737 183.797 3.09607 183.383 3.09607V3.09607Z" fill="white"/>
<path fill-rule="evenodd" clip-rule="evenodd" d="M150.53 4.14065C150.072 3.54755 149.308 3.11615 147.674 3.11615C146.362 3.11625 145.044 3.11635 143.781 3.11645C142.462 3.11655 141.14 3.06286 139.881 3.11686C138.938 3.17216 138.144 3.57596 137.618 4.20246C137.092 4.82876 136.812 5.67775 136.903 6.62085C137.022 8.39625 138.357 9.52446 140.36 9.52436C142.358 9.57686 144.301 9.52426 146.296 9.52416C147.136 9.52416 148.97 9.41615 149.055 10.7576C149.16 12.4211 147.426 12.4212 146.377 12.4212C144.278 12.4212 142.229 12.4212 140.131 12.4213C139.446 12.4213 138.921 12.4213 138.703 11.564C138.702 11.5459 138.696 11.4731 138.695 11.4551C138.186 11.4587 137.535 11.4562 136.912 11.4562C136.92 11.582 136.929 11.7078 136.937 11.8322C136.944 11.9401 136.948 11.9926 136.951 12.0466C137.09 13.2799 137.892 14.299 139.098 14.3515C141.943 14.4593 144.714 14.299 147.545 14.299C148.65 14.299 149.616 13.9902 150.245 13.3269C150.875 12.6641 151.182 11.6439 150.967 10.221C150.822 7.91165 148.578 7.42775 146.792 7.42775C144.796 7.42785 142.848 7.42795 140.852 7.42815C140.011 7.42815 139.08 7.75025 138.977 6.18925C138.902 5.05825 140.009 5.05815 140.64 5.05815C142.799 5.05805 144.853 5.05785 147.061 5.05765C148.379 5.05755 148.635 5.00375 149.02 5.21805C149.02 5.21805 149.073 5.27195 149.132 5.32585C149.192 5.37975 149.195 5.43375 149.198 5.48755C149.211 5.68675 149.223 5.88445 149.236 6.08085C150.092 6.08265 150.661 6.07795 151.023 6.08075C150.954 4.97175 151.06 5.10995 150.53 4.14065V4.14065Z" fill="white"/>
<path fill-rule="evenodd" clip-rule="evenodd" d="M131.645 0.742158C131.231 1.35616 130.824 1.97006 130.417 2.58256C130.375 2.68896 130.323 2.74156 130.225 2.84526C130.048 3.12596 129.877 3.40526 129.707 3.68606C128.794 4.97056 127.896 6.27036 126.993 7.58516C126.091 8.89866 125.17 10.2329 124.216 11.592C123.394 10.3629 122.594 9.14906 121.815 7.95306C121.035 6.75596 120.264 5.57516 119.493 4.42076C119.493 4.42076 119.493 4.42076 119.49 4.36966C119.081 3.76546 118.672 3.16146 118.271 2.55726C117.869 1.95186 117.46 1.34616 117.058 0.739258C116.553 0.750358 115.479 0.744961 114.981 0.744961C115.599 1.70846 116.231 2.67216 116.863 3.63426C117.842 5.23526 118.854 6.82116 119.871 8.39146C120.887 9.95936 121.923 11.5133 122.956 13.0535C123.9 14.5148 124.428 14.5646 125.335 13.2622C126.001 12.2971 126.668 11.3295 127.334 10.3574C128.001 9.38416 128.668 8.40366 129.327 7.40816C129.806 6.72776 130.287 5.99366 130.766 5.31186C130.779 5.29526 130.792 5.27736 130.812 5.25806C131.314 4.50866 131.823 3.75486 132.326 3.00286C132.829 2.25066 133.346 1.49556 133.856 0.742061C133.435 0.742061 132.179 0.743558 131.645 0.742158V0.742158Z" fill="white"/>
<path fill-rule="evenodd" clip-rule="evenodd" d="M166.795 3.11523C163.968 3.11543 161.142 3.11553 158.315 3.11573C156.786 3.11573 155.599 4.35633 155.694 5.91903C155.67 6.89803 155.646 7.87713 155.628 8.85343C155.611 9.82833 155.594 10.8047 155.576 11.7796C155.672 13.3339 157.012 14.5646 158.529 14.5646C161.345 14.5646 164.162 14.5646 166.979 14.5646C168.503 14.5646 169.691 13.3352 169.602 11.7793C169.617 10.814 169.633 9.84733 169.648 8.88073C169.663 7.91273 169.678 6.94303 169.693 5.97223C169.66 4.40953 168.324 3.11513 166.795 3.11523ZM167.766 10.8666C167.825 11.8858 166.93 12.7447 165.825 12.7447C163.755 12.7448 161.692 12.7448 159.629 12.7448C158.531 12.7448 157.528 11.8861 157.466 10.8654C157.475 10.2127 157.492 9.56003 157.501 8.90733C157.511 8.25333 157.527 7.59773 157.543 6.94213C157.481 5.91893 158.383 5.05733 159.483 5.05733C161.551 5.05723 163.619 5.05703 165.694 5.05693C166.802 5.05683 167.797 5.91843 167.856 6.94183C167.838 7.59733 167.819 8.25293 167.808 8.90693C167.796 9.55973 167.778 10.2125 167.766 10.8666V10.8666Z" fill="white"/>
</svg>
